<svg xmlns="http://www.w3.org/2000/svg" xmlns:cc="http://web.resource.org/cc/" xmlns:svg="http://www.w3.org/2000/svg" id="svg602" width="560pt" height="490pt" x="0" y="0" version="1.0" xml:space="preserve"><metadata id="metadata2244"/><path style="font-size:12;fill:#ea0000;fill-rule:evenodd" id="path634" d="M 651.8229 589.4901 L 43.58339 589.943 C 19.8097 589.9607 9.80696 565.7213 23.80069 542.0037 L 316.0161 46.74347 C 332.7052 19.26017 363.6447 18.96107 380.3337 47.67127 L 675.9025 541.5504 C 692.1616 565.1324 680.3398 589.9128 651.8229 589.4901 z"/><path style="font-size:12;fill:#fff;fill-rule:evenodd" id="polygon611" d="M 347.28125 98.5 L 249.59375 259.09375 L 88.3125 536.03125 L 282.125 537.90625 L 612.78125 535.15625 L 516.625 372.6875 L 347.28125 98.5 z"/><path style="font-size:12;fill-rule:evenodd" id="path633" d="M 590.3589 519.1232 L 344.7437 519.439 C 342.5189 519.2382 340.9074 518.7307 341.7497 516.0762 L 432.0002 400.3881 C 435.1214 395.9648 439.8303 393.5731 444.5677 393.7091 L 489.919 393.6123 C 497.2741 393.6089 500.1103 395.738 504.1575 400.8197 L 592.5329 514.9399 C 593.3417 516.9477 592.617 518.9555 590.3589 519.1232 z"/><rect style="font-size:12;fill:#000002;fill-rule:evenodd" id="rect613" width="62.142" height="124.684" x="401.592" y="86.919" rx="11.205" ry="11.817" transform="matrix(0.885449,0.464736,-0.408053,0.912958,0,0)"/><rect style="font-size:12;fill-rule:evenodd" id="rect615" width="100" height="32.5" x="266.614" y="268.594" rx="9.412" ry="8"/><rect style="font-size:12;fill-rule:evenodd" id="rect616" width="93.192" height="27.643" x="-111.084" y="374.948" rx="8.771" ry="6.804" transform="matrix(0.46869,-0.883363,0.744635,0.667472,0,0)"/><rect style="font-size:12;fill-rule:evenodd" id="rect617" width="292.534" height="15.506" x="361.497" y="184.735" rx="27.533" ry="3.817" transform="matrix(0.884585,0.466378,-0.436681,0.899616,0,0)"/><rect style="font-size:12px;fill-rule:evenodd" id="rect618" width="134.952" height="27.031" x="-440.255" y="335.387" rx="12.701" ry="6.654" transform="matrix(-5.7205843e-2,-0.9983624,0.9970356,-7.6942196e-2,0,0)"/><ellipse style="font-size:12;fill-rule:evenodd;stroke-width:1" id="path619" cx="418.75" cy="467.362" rx="31.25" ry="32.5" transform="matrix(0.957573,0,0,0.972804,-15.17769,-201.0577)"/><rect style="font-size:12;fill-rule:evenodd" id="rect621" width="78.066" height="31.236" x="-504.121" y="192.695" rx="7.347" ry="7.689" transform="matrix(-0.234008,-0.972235,0.985645,-0.16883,0,0)"/><rect style="font-size:12;fill-rule:evenodd" id="rect622" width="78.24" height="31.246" x="-494.049" y="303.845" rx="7.364" ry="7.691" transform="matrix(-7.569861e-3,-0.999971,0.997034,7.696708e-2,0,0)"/><rect style="font-size:12;fill-rule:evenodd" id="rect623" width="156.706" height="31.953" x="-296.654" y="424.449" rx="14.749" ry="7.865" transform="matrix(0.494708,-0.869059,0.817867,0.575407,0,0)"/></svg>